<svg xmlns="http://www.w3.org/2000/svg" version="1.1" xmlns:xlink="http://www.w3.org/1999/xlink" xmlns:svgjs="http://svgjs.dev/svgjs" width="1500" height="1500" viewBox="0 0 1500 1500"><rect width="1500" height="1500" fill="#ffffff"></rect><g transform="matrix(0.6666666666666666,0,0,0.6666666666666666,249.39393939393938,438.5856950067477)"><svg viewBox="0 0 396 247" data-background-color="#ffffff" preserveAspectRatio="xMidYMid meet" height="935" width="1500" xmlns="http://www.w3.org/2000/svg" xmlns:xlink="http://www.w3.org/1999/xlink"><g id="tight-bounds" transform="matrix(1,0,0,1,0.2400000000000091,-0.09999999999999432)"><svg viewBox="0 0 395.52 247.2" height="247.2" width="395.52"><g><svg></svg></g><g><svg viewBox="0 0 395.52 247.2" height="247.2" width="395.52"><g transform="matrix(1,0,0,1,75.54432,82.33006747826087)"><svg viewBox="0 0 244.43135999999998 82.53986504347824" height="82.53986504347824" width="244.43135999999998"><g><svg viewBox="0 0 244.43135999999998 82.53986504347824" height="82.53986504347824" width="244.43135999999998"><g><svg viewBox="0 0 244.43135999999998 82.53986504347824" height="82.53986504347824" width="244.43135999999998"><g><svg viewBox="0 0 244.43135999999998 82.53986504347824" height="82.53986504347824" width="244.43135999999998"><g id="textblocktransform"><svg viewBox="0 0 244.43135999999998 82.53986504347824" height="82.53986504347824" width="244.43135999999998" id="textblock"><g><svg viewBox="0 0 244.43135999999998 82.53986504347824" height="82.53986504347824" width="244.43135999999998"><g transform="matrix(1,0,0,1,0,0)"><svg width="244.43135999999998" viewBox="3.45 -34.95 103.5 34.95" height="82.53986504347824" data-palette-color="#676cdb"><g class="wordmark-text-0" data-fill-palette-color="primary" id="text-0"><path d="M33.3-34.95L33.3 0 26.3 0 10.45-23.95 10.45 0 3.45 0 3.45-34.95 10.45-34.95 26.3-10.95 26.3-34.95 33.3-34.95ZM74.6-28.1Q79.7-28.1 82.82-24.98 85.95-21.85 85.95-16.25L85.95-16.25 85.95 0 78.95 0 78.95-15.3Q78.95-18.55 77.3-20.28 75.65-22 72.8-22L72.8-22Q69.95-22 68.27-20.28 66.6-18.55 66.6-15.3L66.6-15.3 66.6 0 59.6 0 59.6-15.3Q59.6-18.55 57.95-20.28 56.3-22 53.45-22L53.45-22Q50.55-22 48.87-20.28 47.2-18.55 47.2-15.3L47.2-15.3 47.2 0 40.2 0 40.2-27.7 47.2-27.7 47.2-24.35Q48.55-26.1 50.67-27.1 52.8-28.1 55.35-28.1L55.35-28.1Q58.6-28.1 61.15-26.73 63.7-25.35 65.1-22.8L65.1-22.8Q66.45-25.2 69.02-26.65 71.6-28.1 74.6-28.1L74.6-28.1ZM106.95-21.95L100.75-21.95 100.75-8.55Q100.75-7.15 101.42-6.53 102.1-5.9 103.7-5.9L103.7-5.9 106.95-5.9 106.95 0 102.55 0Q93.7 0 93.7-8.6L93.7-8.6 93.7-21.95 90.4-21.95 90.4-27.7 93.7-27.7 93.7-34.55 100.75-34.55 100.75-27.7 106.95-27.7 106.95-21.95Z" fill="#676cdb" data-fill-palette-color="primary-0"></path></g></svg></g></svg></g></svg></g></svg></g></svg></g></svg></g></svg></g><g><path d="M245.816 0c68.262 0 123.6 55.338 123.6 123.6 0 68.262-55.338 123.6-123.6 123.6-50.073 0-93.191-29.776-112.615-72.587l4.101 0c19.165 40.697 60.55 68.865 108.514 68.865 66.207 0 119.878-53.671 119.878-119.878 0-66.207-53.671-119.878-119.878-119.878-47.964 0-89.349 28.169-108.514 68.865l-4.101 0c19.424-42.811 62.542-72.587 112.615-72.587z" fill="#000000" stroke="transparent" data-fill-palette-color="tertiary"></path></g></svg></g><defs></defs></svg><rect width="395.52" height="247.2" fill="none" stroke="none" visibility="hidden"></rect></g></svg></g></svg>